<svg clip-rule="evenodd" fill-rule="evenodd" stroke-linejoin="round" stroke-miterlimit="1.41421" viewBox="0 0 55 55" xmlns="http://www.w3.org/2000/svg"><g fill="#6c6c6c" fill-rule="nonzero"><path d="m1845.64 1329.03c.53-.38.79-.85.79-1.43 0-.59-.21-1.12-.63-1.59-.43-.48-.91-.72-1.44-.72-.58 0-1.24.24-1.98.72-12.99 7.1-21.5 11.92-25.53 14.47-1.32.85-1.99 1.8-1.99 2.86 0 1.22.72 2.25 2.15 3.1l26.24 14c.69.37 1.38.55 2.07.55.53 0 .99-.28 1.39-.83.4-.56.6-1.13.6-1.71s-.35-1.06-1.04-1.43c-1.85-1.06-6.07-3.2-12.64-6.4-6.57-3.21-11.35-5.64-14.31-7.28 2.54-1.48 6.99-3.96 13.35-7.44 6.37-3.47 10.69-5.76 12.97-6.87z" transform="matrix(.36525507726 0 0 .36525507726 -654.89680766634 -457.46090879264)"/><path d="m1844.58 1323.27c.51.05.99.16 1.44.39.43.21.82.51 1.15.86.37.38.68.82.9 1.3.35.76.47 1.63.32 2.45-.04.24-.1.46-.19.68-.14.36-.34.69-.59.99-.27.33-.61.62-.98.85-.34.18-.69.34-1.03.52-.38.19-.75.38-1.13.57-2.86 1.49-5.7 3.02-8.54 4.55-3.47 1.89-6.93 3.79-10.38 5.7l-1.58.88-.47.27c1.14.6 2.3 1.19 3.45 1.77 4.33 2.18 8.7 4.29 13.05 6.45 1.14.56 2.27 1.13 3.4 1.71 1.02.52 2.03 1.04 3.03 1.58.39.21.47.26.84.47.19.1.37.22.55.35.58.42 1.05.99 1.3 1.67.23.63.25 1.3.14 1.95-.12.7-.4 1.36-.79 1.95-.54.79-1.29 1.45-2.22 1.71-.44.12-.88.14-1.33.11-.86-.06-1.68-.31-2.45-.69-8.87-4.62-17.64-9.41-26.46-14.11-.72-.43-1.39-.93-1.93-1.57-.41-.48-.74-1.03-.95-1.62-.17-.47-.27-.97-.29-1.48-.01-.36.02-.72.09-1.08.26-1.29 1.08-2.35 2.09-3.15.64-.5 1.34-.91 2.03-1.32.5-.31 1-.61 1.51-.91.9-.54 1.45-.86 2.36-1.4.93-.53 1.86-1.07 2.79-1.6 1.65-.94 3.3-1.87 4.95-2.8 1.97-1.1 3.94-2.19 5.9-3.28 2.26-1.25 4.53-2.49 6.79-3.73.16-.1.31-.19.47-.28.48-.25.98-.46 1.51-.59.27-.06.54-.1.82-.12zm-.39 35.38c.28.14.57.26.88.3h.01c.05-.06.09-.13.12-.2l.01-.01c-1.99-1.12-4.04-2.14-6.09-3.16-2.91-1.46-5.84-2.88-8.76-4.32l-.06-.02c4.63 2.47 9.26 4.94 13.89 7.41zm-26.73-16.12c-.16.13-.32.28-.44.45-.05.08-.11.17-.13.27-.01.1 0 .2.02.3.02.07.05.15.08.22.06.1.13.19.21.28.12.13.26.25.4.36l-.06-.1c-.15-.3-.24-.61-.25-.95 0-.16.03-.32.06-.48.01-.06.03-.11.04-.16.02-.06.04-.11.06-.16.01-.03.03-.05.01-.03zm26.8-15.2c-.21.05-.41.15-.6.26l-.09.05-.17.11c-1.97 1.08-3.93 2.15-5.89 3.24 1.25-.68 2.5-1.34 3.76-2 1.02-.54 2.04-1.07 3.07-1.58-.02-.02-.04-.04-.06-.06-.01-.02-.01-.02-.02-.02z" transform="matrix(.36525507726 0 0 .36525507726 -654.89680766634 -457.46090879264)"/><path d="m1883.41 1329.03c2.28 1.11 6.6 3.4 12.96 6.87 6.36 3.48 10.81 5.96 13.36 7.44-2.97 1.64-7.74 4.07-14.32 7.28-6.57 3.2-10.78 5.34-12.64 6.4-.69.37-1.03.85-1.03 1.43s.2 1.15.59 1.71c.4.55.86.83 1.4.83.68 0 1.37-.18 2.06-.55l26.24-14c1.44-.85 2.15-1.88 2.15-3.1 0-1.06-.66-2.01-1.99-2.86-4.03-2.55-12.54-7.37-25.52-14.47-.75-.48-1.41-.72-1.99-.72-.53 0-1.01.24-1.43.72-.43.47-.64 1-.64 1.59 0 .58.27 1.05.8 1.43z" transform="matrix(.36525507726 0 0 .36525507726 -652.1496547965 -457.46090879264)"/><path d="m1884.89 1323.27c.28.02.55.06.82.12.67.16 1.29.45 1.87.8l.11.07c2.27 1.24 4.53 2.48 6.79 3.73 1.97 1.09 3.93 2.18 5.9 3.28 1.65.93 3.31 1.86 4.96 2.8.95.55 1.83 1.05 2.78 1.6.93.55 1.45.85 2.37 1.4.5.3 1 .6 1.51.91.68.41 1.38.82 2.02 1.31 1.01.8 1.84 1.87 2.1 3.16.07.35.09.71.08 1.08-.02.5-.11 1-.29 1.48-.21.59-.54 1.14-.95 1.62-.54.64-1.21 1.14-1.93 1.57-8.82 4.7-17.6 9.48-26.46 14.11-.77.38-1.59.63-2.45.69-.53.04-1.05 0-1.55-.18-.22-.08-.43-.18-.63-.3-.5-.3-.91-.71-1.25-1.18-.87-1.21-1.32-2.89-.67-4.3.23-.5.59-.94 1.02-1.29.23-.19.48-.35.74-.49.44-.25.88-.5 1.33-.74 1.96-1.04 3.95-2.03 5.93-3.02 3.35-1.67 6.72-3.3 10.07-4.95 1.3-.65 2.6-1.3 3.9-1.96.82-.42 1.65-.85 2.47-1.27l.07-.04c-2.61-1.47-5.23-2.91-7.86-4.35-3.42-1.87-6.84-3.73-10.28-5.56-1.14-.61-2.28-1.21-3.42-1.79-.53-.27-1.06-.52-1.58-.79-.1-.07-.1-.07-.2-.13-.47-.35-.88-.77-1.17-1.29-.15-.27-.27-.56-.34-.87-.46-1.82.52-3.82 2.13-4.74.31-.18.65-.31 1-.39.21-.06.42-.08.64-.1zm13.8 27.99c-2.93 1.44-5.86 2.86-8.77 4.32-1.94.97-3.89 1.95-5.79 2.99l-.29.17c.03.07.06.13.1.19l.02.02c.28-.03.54-.13.79-.25 4.67-2.44 18.66-9.76 13.94-7.44zm12.91-8.7c.05.16.1.31.13.48.07.48-.04.95-.29 1.37.11-.08.21-.17.31-.26.1-.1.18-.2.26-.31.04-.07.08-.15.11-.23.03-.11.05-.24.03-.36-.02-.11-.09-.21-.15-.3-.12-.16-.27-.3-.42-.42v-.01c0 .02.01.03.02.04zm-26.84-15.21c-.02.03-.02.03-.05.06.79.4 1.58.8 2.37 1.21 1.32.69 2.63 1.39 3.95 2.09l.51.28c-1.96-1.09-3.93-2.16-5.9-3.24-.14-.09-.28-.18-.43-.26-.11-.05-.22-.1-.33-.14-.05-.01-.05-.01-.09-.02-.02 0-.01 0-.03.02z" transform="matrix(.36525507726 0 0 .36525507726 -652.1496547965 -457.46090879264)"/><path d="m1675.28 1310.53c.03-.03.05-.05.08-.07.09-.06.19-.06.28 0 .3.18.56 1.01.69 2.15.04.38.06.79.06 1.21.08 12.39.01 24.8.01 37.2-.01.18-.01.35-.02.52-.01.41-.04.81-.09 1.17-.12.87-.33 1.51-.57 1.76-.08.09-.17.13-.27.11-.08-.02-.17-.09-.26-.22s-.18-.34-.26-.6c-.09-.29-.16-.65-.22-1.05-.04-.31-.07-.64-.09-.99-.01-.18-.01-.36-.01-.54-.08-12.39-.01-24.8-.01-37.2.01-.3.01-.59.03-.87.05-.79.17-1.49.33-1.98.07-.21.15-.37.23-.49.04-.06.04-.06.09-.11z" transform="matrix(1.7760847185 .57727210431 -.14431777983 .44402068713 -2756.01309081 -1526.03151029)"/><path d="m1827.82 1307c.54.01 1.07.1 1.58.29.65.24 1.24.62 1.73 1.11s.87 1.08 1.11 1.73c.18.51.28 1.04.29 1.58.1 16.02.3 32.04 0 48.05-.02.52-.11 1.03-.29 1.52-.24.65-.62 1.24-1.11 1.73s-1.08.87-1.73 1.11c-.51.19-1.04.28-1.58.29-17.42.11-34.85.33-52.26 0-.52-.02-1.03-.11-1.52-.29-.65-.24-1.24-.62-1.73-1.11s-.88-1.08-1.11-1.73c-.19-.51-.28-1.04-.29-1.58-.1-16.02-.31-32.04 0-48.05.01-.52.11-1.03.29-1.52.23-.65.62-1.24 1.11-1.73s1.08-.87 1.73-1.11c.51-.19 1.04-.28 1.58-.29 17.4-.11 34.8-.11 52.2 0zm-52.13 3.63c-.14 0-.29.02-.43.08-.29.11-.53.35-.65.65-.05.12-.07.26-.07.4-.11 15.98-.71 31.97 0 47.93 0 .13.03.26.08.39.13.29.37.53.67.63.11.05.23.07.35.07 17.38.55 34.79.79 52.16 0 .14-.01.27-.03.4-.09.27-.11.5-.33.61-.61.06-.12.08-.26.09-.4.5-15.97.71-31.99 0-47.96-.01-.14-.04-.28-.1-.41-.12-.27-.35-.49-.63-.6-.11-.05-.24-.08-.37-.08-17.36-.55-34.74 0-52.11 0z" transform="matrix(.88397041059 0 0 .95010559416 -1565.16412077 -1241.605403894)"/><path d="m1893.19 1318.26c.06.01.13.02.19.03.24.06.48.16.68.32.15.11.28.25.39.41.25.37.35.82.28 1.26-.03.19-.1.37-.18.54-.09.17-.21.32-.35.45-.23.22-.52.37-.82.44-.17.04-.21.03-.38.04h-54c-.17-.01-.21 0-.38-.04-.3-.07-.59-.22-.82-.44-.14-.13-.26-.28-.35-.45-.08-.17-.15-.35-.18-.54-.08-.5.07-1.02.4-1.41.12-.15.26-.27.43-.37.22-.13.46-.21.71-.24.06-.01.13-.01.19-.01h54c.06 0 .13.01.19.01z" transform="matrix(.91213718463 0 0 .98499 -1674.19069389 -1287.2)"/><path d="m1854.09 1313.25c.08.01.17.02.26.04.23.04.44.13.64.26.14.1.27.22.38.36.37.46.48 1.09.29 1.65-.07.19-.16.37-.29.53-.15.18-.33.34-.53.45-.16.08-.32.14-.49.17-.09.02-.18.03-.26.04-3.7.09-7.39 0-11.09 0-.09 0-.17-.01-.26-.02-.17-.03-.34-.08-.5-.15-.21-.1-.4-.25-.55-.42-.14-.15-.25-.33-.32-.52-.06-.16-.1-.33-.11-.51-.02-.17 0-.35.03-.52.11-.46.4-.86.8-1.1.17-.11.36-.18.56-.22.09-.02.18-.03.26-.04 3.73-.09 7.45-.09 11.18 0z" transform="matrix(.98499 0 0 .98499 -1806.9647947659 -1287.7517125988)"/><path d="m1878.03 1313.25c.22.01.44.05.64.13.15.07.3.15.43.26.43.35.67.89.65 1.44-.01.19-.05.38-.12.56-.08.2-.2.38-.34.54-.15.17-.34.31-.55.41-.22.1-.47.15-.71.16-.38 0-.76.02-1.14 0-.24-.02-.48-.09-.7-.2-.21-.11-.39-.25-.53-.43-.14-.16-.25-.35-.31-.55-.07-.18-.1-.38-.1-.57 0-.17.02-.34.07-.49.15-.51.53-.93 1.01-1.13.21-.08.42-.12.64-.13z" transform="matrix(.98499 0 0 .98499 -1810.4494726881 -1287.7517125988)"/><path d="m1883.03 1313.25c.22.01.44.05.64.13.15.07.3.15.43.26.43.35.67.89.65 1.44-.01.19-.05.38-.12.56-.08.2-.2.38-.34.54-.15.17-.34.31-.55.41-.22.1-.47.15-.71.16-.38 0-.76.02-1.14 0-.24-.02-.48-.09-.7-.2-.21-.11-.39-.25-.53-.43-.14-.16-.25-.35-.31-.55-.07-.18-.1-.38-.1-.57 0-.17.02-.34.07-.49.15-.51.53-.93 1.01-1.13.21-.08.42-.12.64-.13z" transform="matrix(.98499 0 0 .98499 -1808.4794926881 -1287.7517125988)"/></g></svg>